<svg width="72" height="72" viewBox="0 0 72 72" fill="none" xmlns="http://www.w3.org/2000/svg">
	<rect width="72" height="72" rx="16" fill="#EEF3FD" />
	<path
		d="M33.3775 21.9844H22.2166C22.0624 21.9844 21.9375 22.1093 21.9375 22.2634V33.4244C21.9375 33.5785 22.0624 33.7034 22.2166 33.7034H33.3775C33.5316 33.7034 33.6566 33.5785 33.6566 33.4244V22.2634C33.6566 22.1093 33.5316 21.9844 33.3775 21.9844Z"
		fill="#2563EB"
	/>
	<path
		d="M49.7662 21.9844H38.6052C38.4511 21.9844 38.3262 22.1093 38.3262 22.2634V33.4244C38.3262 33.5785 38.4511 33.7034 38.6052 33.7034H49.7662C49.9203 33.7034 50.0452 33.5785 50.0452 33.4244V22.2634C50.0452 22.1093 49.9203 21.9844 49.7662 21.9844Z"
		fill="#2563EB"
	/>
	<path
		d="M33.3775 38.3721H22.2166C22.0624 38.3721 21.9375 38.497 21.9375 38.6511V49.8121C21.9375 49.9662 22.0624 50.0911 22.2166 50.0911H33.3775C33.5316 50.0911 33.6566 49.9662 33.6566 49.8121V38.6511C33.6566 38.497 33.5316 38.3721 33.3775 38.3721Z"
		fill="#2563EB"
	/>
	<path
		d="M46.0455 42.3715V37.9998C46.0455 37.8456 45.9206 37.7207 45.7665 37.7207H42.6037C42.4495 37.7207 42.3246 37.8456 42.3246 37.9998V42.3715H37.9529C37.7988 42.3715 37.6738 42.4964 37.6738 42.6506V45.8134C37.6738 45.9675 37.7988 46.0924 37.9529 46.0924H42.3246V50.4649C42.3246 50.619 42.4495 50.744 42.6037 50.744H45.7665C45.9206 50.744 46.0455 50.619 46.0455 50.4649V46.0924H50.418C50.5722 46.0924 50.6971 45.9675 50.6971 45.8134V42.6506C50.6971 42.4964 50.5722 42.3715 50.418 42.3715H46.0455Z"
		fill="#2563EB"
	/>
</svg>
