<svg width="72" height="72" viewBox="0 0 72 72" fill="none" xmlns="http://www.w3.org/2000/svg">
	<rect width="72" height="72" rx="16" fill="#FFFBE6" />
	<path
		d="M49.3327 39.3335V29.3335L39.3327 19.3335H25.9993C25.1153 19.3335 24.2674 19.6847 23.6423 20.3098C23.0172 20.9349 22.666 21.7828 22.666 22.6668V49.3335C22.666 50.2176 23.0172 51.0654 23.6423 51.6905C24.2674 52.3156 25.1153 52.6668 25.9993 52.6668H45.9993C46.8834 52.6668 47.7312 52.3156 48.3564 51.6905C48.9815 51.0654 49.3327 50.2176 49.3327 49.3335V42.6668H37.666V47.6668L29.3327 41.0002L37.666 34.3335V39.3335H49.3327ZM37.666 22.6668L45.9993 31.0002H37.666V22.6668Z"
		fill="#EA9008"
	/>
</svg>
