<svg width="72" height="72" viewBox="0 0 72 72" fill="none" xmlns="http://www.w3.org/2000/svg">
	<rect width="72" height="72" rx="16" fill="#FEEEE3" />
	<path
		fill-rule="evenodd"
		clip-rule="evenodd"
		d="M31.8673 21C32.3162 21 32.7604 21.0906 33.1734 21.2664C33.5864 21.4423 33.9596 21.6997 34.2707 22.0233L34.4707 22.2517L36.8006 25.1667H49.334C50.1749 25.1664 50.9849 25.484 51.6016 26.0558C52.2182 26.6276 52.5959 27.4114 52.659 28.25L52.6673 28.5V47.6667C52.6676 48.5076 52.35 49.3176 51.7782 49.9342C51.2063 50.5509 50.4226 50.9286 49.584 50.9917L49.334 51H22.6673C21.8264 51.0003 21.0164 50.6827 20.3997 50.1108C19.7831 49.539 19.4054 48.7553 19.3423 47.9167L19.334 47.6667V24.3333C19.3337 23.4924 19.6513 22.6824 20.2231 22.0658C20.795 21.4491 21.5787 21.0714 22.4173 21.0083L22.6673 21H31.8673ZM40.1257 33.0533L34.2323 38.9467L31.8757 36.59C31.7219 36.4308 31.538 36.3038 31.3347 36.2165C31.1313 36.1291 30.9126 36.0832 30.6913 36.0812C30.47 36.0793 30.2506 36.1215 30.0457 36.2053C29.8409 36.2891 29.6548 36.4129 29.4983 36.5693C29.3418 36.7258 29.2181 36.9119 29.1343 37.1167C29.0505 37.3216 29.0083 37.541 29.0102 37.7623C29.0122 37.9836 29.0581 38.2023 29.1455 38.4057C29.2328 38.609 29.3598 38.7929 29.519 38.9467L32.9357 42.3633C33.1059 42.5337 33.308 42.6688 33.5305 42.761C33.753 42.8532 33.9915 42.9006 34.2323 42.9006C34.4731 42.9006 34.7116 42.8532 34.9341 42.761C35.1566 42.6688 35.3587 42.5337 35.529 42.3633L42.4823 35.41C42.7859 35.0957 42.9539 34.6747 42.9501 34.2377C42.9463 33.8007 42.771 33.3826 42.462 33.0736C42.153 32.7646 41.735 32.5893 41.298 32.5855C40.861 32.5817 40.44 32.7497 40.1257 33.0533Z"
		fill="#F97316"
	/>
</svg>
