<svg width="21" height="21" viewBox="0 0 21 21" fill="none" xmlns="http://www.w3.org/2000/svg">
	<path
		d="M11.3327 7.99984H9.66602V6.33317H11.3327M11.3327 14.6665H9.66602V9.6665H11.3327M10.4993 2.1665C9.405 2.1665 8.32137 2.38205 7.31032 2.80084C6.29927 3.21963 5.38061 3.83346 4.60679 4.60728C3.04399 6.17008 2.16602 8.2897 2.16602 10.4998C2.16602 12.71 3.04399 14.8296 4.60679 16.3924C5.38061 17.1662 6.29927 17.78 7.31032 18.1988C8.32137 18.6176 9.405 18.8332 10.4993 18.8332C12.7095 18.8332 14.8291 17.9552 16.3919 16.3924C17.9547 14.8296 18.8327 12.71 18.8327 10.4998C18.8327 9.40549 18.6171 8.32185 18.1983 7.31081C17.7796 6.29976 17.1657 5.3811 16.3919 4.60728C15.6181 3.83346 14.6994 3.21963 13.6884 2.80084C12.6773 2.38205 11.5937 2.1665 10.4993 2.1665Z"
		fill="#2563EB"
	/>
</svg>
